<?xml version="1.0" encoding="UTF-8" standalone="no"?>
<!-- Created with Inkscape (http://www.inkscape.org/) -->

<svg
   width="64"
   height="64"
   viewBox="0 0 16.933333 16.933333"
   version="1.1"
   id="svg5"
   xml:space="preserve"
   inkscape:version="1.2.1 (9c6d41e4, 2022-07-14)"
   sodipodi:docname="banana.svg"
   xmlns:inkscape="http://www.inkscape.org/namespaces/inkscape"
   xmlns:sodipodi="http://sodipodi.sourceforge.net/DTD/sodipodi-0.dtd"
   xmlns="http://www.w3.org/2000/svg"
   xmlns:svg="http://www.w3.org/2000/svg"><sodipodi:namedview
     id="namedview7"
     pagecolor="#ffffff"
     bordercolor="#000000"
     borderopacity="0.25"
     inkscape:showpageshadow="2"
     inkscape:pageopacity="0.0"
     inkscape:pagecheckerboard="0"
     inkscape:deskcolor="#d1d1d1"
     inkscape:document-units="mm"
     showgrid="false"
     inkscape:zoom="3.2421875"
     inkscape:cx="22.361446"
     inkscape:cy="31.922892"
     inkscape:window-width="1680"
     inkscape:window-height="987"
     inkscape:window-x="0"
     inkscape:window-y="38"
     inkscape:window-maximized="0"
     inkscape:current-layer="layer1" /><defs
     id="defs2"><inkscape:path-effect
       effect="spiro"
       id="path-effect5520"
       is_visible="true"
       lpeversion="1" /><inkscape:path-effect
       effect="spiro"
       id="path-effect5454"
       is_visible="true"
       lpeversion="1" /><inkscape:path-effect
       effect="spiro"
       id="path-effect4814"
       is_visible="true"
       lpeversion="1" /><inkscape:path-effect
       effect="spiro"
       id="path-effect4135"
       is_visible="true"
       lpeversion="1" /><inkscape:path-effect
       effect="spiro"
       id="path-effect1880"
       is_visible="true"
       lpeversion="1" /></defs><g
     inkscape:label="Layer 1"
     inkscape:groupmode="layer"
     id="layer1"><g
       id="g7074"
       transform="matrix(0.75923395,0,0,0.75923395,2.6227924,5.9340522)"><ellipse
         style="fill:#fdf2b4;fill-opacity:1;stroke:#7a2e00;stroke-width:0.412084;stroke-dasharray:none;stroke-opacity:1"
         id="path5774"
         cx="7.7814722"
         cy="3.3356619"
         rx="2.7218726"
         ry="10.945461" /><path
         id="ellipse6525"
         style="fill:#feda00;fill-opacity:1;stroke:#7a2e00;stroke-width:0.424072;stroke-dasharray:none;stroke-opacity:1"
         d="M 5.0656335,2.6580283 A 2.7158783,11.617146 0 0 0 7.7814375,14.275305 2.7158783,11.617146 0 0 0 10.497241,2.6580283 Z" /><path
         id="path6718"
         style="fill:#f5a800;fill-opacity:1;stroke:none;stroke-width:0.424072;stroke-dasharray:none;stroke-opacity:1"
         d="M 5.0658402,2.6582359 A 2.7158783,11.617146 0 0 0 7.0181763,13.803292 V 2.6582359 Z" /><path
         id="path7051"
         style="fill:none;fill-opacity:1;stroke:#7a2e00;stroke-width:0.424072;stroke-dasharray:none;stroke-opacity:1"
         d="M 5.0656335,2.6580283 A 2.7158783,11.617146 0 0 0 7.7814375,14.275305 2.7158783,11.617146 0 0 0 10.497241,2.6580283 Z" /><g
         id="g6716"
         transform="matrix(0.90669271,0,0,0.90669271,27.041958,16.245021)"><path
           id="path6703"
           style="fill:#feda00;stroke:#7a2e00;stroke-width:0.58206"
           d="m -24.408026,-11.562982 c -2.07,3.1581316 -1.670997,6.7211566 -3.019046,6.1364876 -1.348049,-0.584669 -1.784716,-4.164028 0.285282,-7.3221596 2.069999,-3.15813 5.179142,-2.442548 5.179142,-2.442548 1.348053,0.584665 -0.375379,0.470088 -2.445378,3.62822 z"
           sodipodi:nodetypes="sssss" /><path
           id="path6712"
           style="fill:#feda00;stroke:#7a2e00;stroke-width:0.58206"
           d="m -18.263303,-11.562982 c 2.07,3.1581316 1.670997,6.7211566 3.019046,6.1364876 1.348049,-0.584669 1.784716,-4.164028 -0.285282,-7.3221596 -2.069999,-3.15813 -5.179142,-2.442548 -5.179142,-2.442548 -1.348053,0.584665 0.375379,0.470088 2.445378,3.62822 z"
           sodipodi:nodetypes="sssss" /></g></g></g><style
     type="text/css"
     id="style5539">.st0{fill:#8CA532;} .st1{fill:#7F573C;} .st2{fill:#9AB748;}</style><style
     type="text/css"
     id="style5588">.st0{fill:#FFCE01;}</style><style
     type="text/css"
     id="style4479">.st0{fill:#7A2E00;} .st1{fill:#FCEB8F;} .st2{fill:#FEDA00;} .st3{fill:#FDF2B4;} .st4{fill:#F5A800;}</style></svg>
