<?xml version="1.0" encoding="UTF-8" standalone="no"?>
<!-- Created with Inkscape (http://www.inkscape.org/) -->

<svg
   width="64"
   height="64"
   viewBox="0 0 16.933333 16.933333"
   version="1.1"
   id="svg5"
   xml:space="preserve"
   inkscape:version="1.2.1 (9c6d41e4, 2022-07-14)"
   sodipodi:docname="cherert.svg"
   xmlns:inkscape="http://www.inkscape.org/namespaces/inkscape"
   xmlns:sodipodi="http://sodipodi.sourceforge.net/DTD/sodipodi-0.dtd"
   xmlns="http://www.w3.org/2000/svg"
   xmlns:svg="http://www.w3.org/2000/svg"><sodipodi:namedview
     id="namedview7"
     pagecolor="#ffffff"
     bordercolor="#000000"
     borderopacity="0.25"
     inkscape:showpageshadow="2"
     inkscape:pageopacity="0.0"
     inkscape:pagecheckerboard="0"
     inkscape:deskcolor="#d1d1d1"
     inkscape:document-units="mm"
     showgrid="false"
     inkscape:zoom="3.2421875"
     inkscape:cx="61.53253"
     inkscape:cy="31.768675"
     inkscape:window-width="1680"
     inkscape:window-height="1022"
     inkscape:window-x="0"
     inkscape:window-y="95"
     inkscape:window-maximized="0"
     inkscape:current-layer="layer1" /><defs
     id="defs2" /><g
     inkscape:label="Layer 1"
     inkscape:groupmode="layer"
     id="layer1"><g
       id="g4933"
       transform="matrix(1.3119321,0,0,1.3119321,-2.641023,-2.6413605)"><path
         class="st0"
         d="m 11.223092,7.9048382 c -0.630772,-0.518977 -1.045134,-1.4020585 -1.16616,-2.316935 -0.1312825,-0.9918 0.04821,-2.0338566 0.560003,-2.7743733 v 0 l 0.01539,-0.021539 C 10.757449,2.6125033 10.714371,2.3642969 10.533858,2.239168 10.35437,2.1140392 10.106163,2.1571163 9.9810344,2.33763 l -0.016413,0.02359 h -0.00208 v 0 C 9.7430843,2.6781446 9.5738525,3.0371208 9.4518006,3.4207126 9.1451323,2.6996832 8.6671811,2.3807072 8.0866653,2.2996811 7.4876879,2.2155781 6.9430696,2.3889124 6.3728103,2.543785 5.9830647,2.6494265 5.5963961,2.761222 5.2128043,2.87712 5.4384466,3.245327 5.732807,3.5581492 6.0979371,3.8125095 6.2774252,3.9366126 6.4681955,4.0453312 6.6671708,4.1355881 7.5010212,4.5099489 8.655899,4.5540517 9.3307743,3.8812277 9.311287,3.9735359 9.2948767,4.0658441 9.2805176,4.1602035 8.2046146,4.7858478 7.2548662,5.513031 6.5174265,6.4084203 5.8384486,7.2330399 5.3440871,8.1961218 5.1020346,9.3458713 L 5.8763975,9.529462 C 6.0897319,8.50279 6.5276829,7.6453497 7.1307629,6.9120126 7.6969197,6.2238039 8.4107696,5.6402112 9.2220558,5.1243111 9.2271843,5.31303 9.242569,5.5017489 9.2671844,5.6884166 9.3974415,6.673037 9.8220589,7.6412471 10.471293,8.2986864 Z"
         id="path4538"
         style="stroke:#554400;stroke-width:0.303;stroke-dasharray:none" /><path
         class="st1"
         d="m 9.9779573,12.198194 c 0.4974387,0.591797 1.2430827,0.96821 2.0779597,0.96821 1.498469,0 2.712834,-1.214365 2.712834,-2.712834 0,-0.9128259 -0.451284,-1.7200095 -1.14257,-2.2123197 v 0 l -0.02359,-0.016411 -10e-4,-0.00103 C 13.167717,7.9315051 12.645664,7.7602221 12.083609,7.7602221 c -1.500521,0 -2.7179627,1.2164166 -2.7179627,2.7179629 -0.00103,0.652311 0.2287191,1.251289 0.612311,1.720009 z m 3.6748907,-0.416413 c 0.05129,-0.06872 0.03692,-0.16718 -0.0318,-0.218462 -0.06872,-0.05129 -0.167181,-0.03693 -0.218463,0.03179 -0.128206,0.171283 -0.27077,0.316925 -0.427694,0.436925 -0.156924,0.118975 -0.327182,0.213335 -0.512823,0.284104 -0.08103,0.03077 -0.121026,0.120001 -0.09128,0.201027 0.03077,0.08103 0.120001,0.121026 0.201027,0.09128 0.213334,-0.08103 0.411284,-0.189744 0.591797,-0.328206 0.180514,-0.138463 0.343592,-0.304617 0.489234,-0.498464 z"
         id="path4540"
         style="stroke:#554400;stroke-width:0.303;stroke-dasharray:none" /><path
         class="st1"
         d="m 5.1020346,9.3458713 -0.00103,0.00307 c -0.073847,-0.00616 -0.1487188,-0.00923 -0.2246166,-0.00923 -1.4974437,0 -2.7118089,1.2143647 -2.7118089,2.7128337 0,1.49847 1.2143652,2.712835 2.7128346,2.712835 0.2758988,0 0.5425669,-0.04103 0.7938502,-0.117949 1.1046211,-0.345643 1.9056509,-1.376417 1.9056509,-2.59386 0,-1.419494 -1.0882108,-2.5846283 -2.4748846,-2.7077058 z M 3.279461,13.380764 c -0.051282,-0.06872 -0.036923,-0.16718 0.031795,-0.218463 0.068718,-0.05129 0.1671804,-0.03795 0.2184627,0.0318 0.1282057,0.171283 0.2707706,0.316925 0.4276945,0.436926 0.1569239,0.118974 0.3271812,0.213334 0.5128231,0.284103 0.081026,0.03077 0.1210263,0.120002 0.091283,0.201027 -0.030769,0.08103 -0.1200005,0.121027 -0.2010266,0.09128 C 4.1471578,14.126409 3.9492081,14.01769 3.7686944,13.879228 3.5881806,13.740766 3.4251028,13.574611 3.279461,13.380764 Z"
         id="path4542"
         style="stroke:#554400;stroke-width:0.303;stroke-dasharray:none" /></g></g><style
     type="text/css"
     id="style4479">.st0{fill:#7A2E00;} .st1{fill:#FCEB8F;} .st2{fill:#FEDA00;} .st3{fill:#FDF2B4;} .st4{fill:#F5A800;}</style><style
     type="text/css"
     id="style4536">.st0{fill-rule:evenodd;clip-rule:evenodd;fill:#659C35;} .st1{fill-rule:evenodd;clip-rule:evenodd;fill:#D13834;}</style></svg>
