<?xml version="1.0" encoding="UTF-8" standalone="no"?>
<!-- Created with Inkscape (http://www.inkscape.org/) -->

<svg
   width="64"
   height="64"
   viewBox="0 0 16.933333 16.933333"
   version="1.1"
   id="svg5"
   xml:space="preserve"
   inkscape:version="1.2.1 (9c6d41e4, 2022-07-14)"
   sodipodi:docname="pear.svg"
   xmlns:inkscape="http://www.inkscape.org/namespaces/inkscape"
   xmlns:sodipodi="http://sodipodi.sourceforge.net/DTD/sodipodi-0.dtd"
   xmlns="http://www.w3.org/2000/svg"
   xmlns:svg="http://www.w3.org/2000/svg"><sodipodi:namedview
     id="namedview7"
     pagecolor="#ffffff"
     bordercolor="#000000"
     borderopacity="0.25"
     inkscape:showpageshadow="2"
     inkscape:pageopacity="0.0"
     inkscape:pagecheckerboard="0"
     inkscape:deskcolor="#d1d1d1"
     inkscape:document-units="mm"
     showgrid="false"
     inkscape:zoom="3.2421875"
     inkscape:cx="22.361446"
     inkscape:cy="31.922892"
     inkscape:window-width="1680"
     inkscape:window-height="987"
     inkscape:window-x="0"
     inkscape:window-y="38"
     inkscape:window-maximized="0"
     inkscape:current-layer="layer1" /><defs
     id="defs2"><inkscape:path-effect
       effect="spiro"
       id="path-effect4814"
       is_visible="true"
       lpeversion="1" /><inkscape:path-effect
       effect="spiro"
       id="path-effect4135"
       is_visible="true"
       lpeversion="1" /><inkscape:path-effect
       effect="spiro"
       id="path-effect1880"
       is_visible="true"
       lpeversion="1" /></defs><g
     inkscape:label="Layer 1"
     inkscape:groupmode="layer"
     id="layer1"><g
       id="g4819"
       transform="matrix(1.052955,0,0,1.052955,-0.8913228,0.90785183)"><path
         id="path531"
         style="fill:#ccff00;fill-opacity:1;stroke:#7a2e00;stroke-width:0.465176;stroke-dasharray:none;stroke-opacity:1"
         d="m 8.8746728,1.9463904 a 3.8842767,4.5619491 0 0 0 -3.8842213,4.5616346 3.8842767,4.5619491 0 0 0 0,0.00186 A 5.98841,4.5650879 0 0 0 2.8989478,9.9721677 5.98841,4.5650879 0 0 0 7.3967941,14.39051 1.6524571,1.0497137 0 0 0 8.8876184,14.986943 1.6524571,1.0497137 0 0 0 10.377925,14.390511 5.98841,4.5650879 0 0 0 14.875771,9.9721689 5.98841,4.5650879 0 0 0 12.758894,6.490346 3.8842767,4.5619491 0 0 0 8.8746728,1.9463904 Z" /><path
         style="fill:none;fill-opacity:1;stroke:#89a02c;stroke-width:0.768671;stroke-dasharray:none;stroke-opacity:1"
         d="M 5.4904401,7.3099043 C 4.9002345,7.6255823 4.4209941,8.1441355 4.1527303,8.7573482 3.8844665,9.3705609 3.8289148,10.074466 3.9976681,10.722168 c 0.2506106,0.961883 1.0092379,1.775656 1.951201,2.093036"
         id="path1878"
         inkscape:path-effect="#path-effect1880"
         inkscape:original-d="M 5.4904401,7.3099043 C 4.992972,8.4475238 4.4953819,9.584945 3.9976681,10.722168 c -0.4977147,1.137219 1.3009235,1.395556 1.951201,2.093036" /><path
         style="fill:none;fill-opacity:1;stroke:#7a2e00;stroke-width:0.475985;stroke-dasharray:none;stroke-opacity:1"
         d="M 11.322641,-0.64865861 C 11.078313,-0.528419 10.843636,-0.38857433 10.621608,-0.23091111 9.8531339,0.31478726 9.2408484,1.0779123 8.8746725,1.9463904 8.5084965,2.8148686 8.3895658,3.7860065 8.5353465,4.7171816"
         id="path4812"
         inkscape:path-effect="#path-effect4814"
         inkscape:original-d="m 11.322641,-0.64865861 c -0.233769,0.1396122 -0.467447,0.2788615 -0.701033,0.4177475 -0.233586,0.1388871 -1.3909325,3.29909131 -2.0862615,4.94809271" /></g></g><style
     type="text/css"
     id="style5539">.st0{fill:#8CA532;} .st1{fill:#7F573C;} .st2{fill:#9AB748;}</style><style
     type="text/css"
     id="style5588">.st0{fill:#FFCE01;}</style></svg>
