<?xml version="1.0" encoding="UTF-8" standalone="no"?>
<!-- Created with Inkscape (http://www.inkscape.org/) -->

<svg
   width="64"
   height="64"
   viewBox="0 0 16.933333 16.933333"
   version="1.1"
   id="svg5"
   xml:space="preserve"
   inkscape:version="1.2.1 (9c6d41e4, 2022-07-14)"
   sodipodi:docname="red_apple.svg"
   xmlns:inkscape="http://www.inkscape.org/namespaces/inkscape"
   xmlns:sodipodi="http://sodipodi.sourceforge.net/DTD/sodipodi-0.dtd"
   xmlns="http://www.w3.org/2000/svg"
   xmlns:svg="http://www.w3.org/2000/svg"><sodipodi:namedview
     id="namedview7"
     pagecolor="#ffffff"
     bordercolor="#000000"
     borderopacity="0.25"
     inkscape:showpageshadow="2"
     inkscape:pageopacity="0.0"
     inkscape:pagecheckerboard="0"
     inkscape:deskcolor="#d1d1d1"
     inkscape:document-units="mm"
     showgrid="false"
     inkscape:zoom="3.2421875"
     inkscape:cx="22.361446"
     inkscape:cy="31.922892"
     inkscape:window-width="1680"
     inkscape:window-height="987"
     inkscape:window-x="0"
     inkscape:window-y="38"
     inkscape:window-maximized="0"
     inkscape:current-layer="g5349" /><defs
     id="defs2"><inkscape:path-effect
       effect="spiro"
       id="path-effect4814"
       is_visible="true"
       lpeversion="1" /><inkscape:path-effect
       effect="spiro"
       id="path-effect4135"
       is_visible="true"
       lpeversion="1" /><inkscape:path-effect
       effect="spiro"
       id="path-effect1880"
       is_visible="true"
       lpeversion="1" /></defs><g
     inkscape:label="Layer 1"
     inkscape:groupmode="layer"
     id="layer1"><g
       id="g5349"
       transform="matrix(0.90669271,0,0,0.90669271,27.041958,16.377445)"><path
         id="path4925"
         style="fill:#aa0000;fill-opacity:1;stroke:#7a2e00;stroke-width:0.475985;stroke-dasharray:none;stroke-opacity:1"
         d="m -18.598865,-11.905733 c -1.107827,0.02498 -2.047937,0.751375 -2.047937,0.751375 0,0 -1.722196,-0.943554 -3.044258,-0.577742 -1.322063,0.36581 -3.156191,3.8437362 -3.15743,6.4533524 2.5e-5,2.6826721 2.108501,5.3147109 4.490682,5.64926762 0.694215,0.0974964 0.916996,-1.22168545 1.711523,-1.22214762 0.794566,1.7777e-4 1.017803,1.31925587 1.71204,1.22163086 2.381882,-0.33494504 4.49014,-2.96629156 4.490165,-5.64875086 -3.1e-5,-3.2450583 -1.507903,-5.5638854 -3.019454,-6.3655024 -0.377887,-0.200405 -0.766055,-0.269811 -1.135331,-0.261483 z"
         sodipodi:nodetypes="scscacacss" /><path
         style="fill:none;fill-opacity:1;stroke:#7a2e00;stroke-width:0.883851;stroke-dasharray:none;stroke-opacity:1"
         d="m -23.516163,-9.162811 c -0.645351,0.5081417 -1.14091,1.2042179 -1.409862,1.9803301 -0.268952,0.7761123 -0.310363,1.6295678 -0.117815,2.428073 0.269777,1.1187725 1.006954,2.1170412 1.996826,2.7040548"
         id="path1878"
         inkscape:path-effect="#path-effect1880"
         inkscape:original-d="m -23.516163,-9.162811 c -0.5091,1.469724 -1.018326,2.9391922 -1.527677,4.4084031 -0.509353,1.4692072 1.331343,1.8029601 1.996826,2.7040548" /><g
         id="g5341"
         transform="translate(0.46131172,-0.2227602)"><path
           style="fill:none;fill-opacity:1;stroke:#7a2e00;stroke-width:0.501191;stroke-dasharray:none;stroke-opacity:1"
           d="m -18.212954,-15.198771 c -0.257267,0.126607 -0.504372,0.273857 -0.738157,0.439869 -0.809169,0.574595 -1.453879,1.378132 -1.839445,2.2926 -0.385567,0.914469 -0.510795,1.937034 -0.357294,2.9175193"
           id="path4812"
           inkscape:path-effect="#path-effect4814"
           inkscape:original-d="m -18.212954,-15.198771 c -0.246149,0.147005 -0.492201,0.293629 -0.738157,0.439869 -0.245955,0.146242 -1.464589,3.473795 -2.196739,5.2101193" /><ellipse
           style="fill:#338000;fill-opacity:1;stroke:#7a2e00;stroke-width:0.297218;stroke-dasharray:none;stroke-opacity:1"
           id="path5265"
           cx="-21.530567"
           cy="1.5520561"
           rx="2.1402054"
           ry="0.6577673"
           transform="rotate(43.596537)" /><ellipse
           style="fill:#338000;fill-opacity:1;stroke:#7a2e00;stroke-width:0.297218;stroke-dasharray:none;stroke-opacity:1"
           id="ellipse5336"
           cx="-4.9984927"
           cy="-22.615843"
           rx="2.1402054"
           ry="0.6577673"
           transform="rotate(-32.399781)" /></g></g></g><style
     type="text/css"
     id="style5539">.st0{fill:#8CA532;} .st1{fill:#7F573C;} .st2{fill:#9AB748;}</style><style
     type="text/css"
     id="style5588">.st0{fill:#FFCE01;}</style></svg>
