<?xml version="1.0" encoding="UTF-8" standalone="no"?>
<!-- Created with Inkscape (http://www.inkscape.org/) -->

<svg
   width="64"
   height="64"
   viewBox="0 0 16.933333 16.933333"
   version="1.1"
   id="svg5"
   xml:space="preserve"
   inkscape:version="1.2.1 (9c6d41e4, 2022-07-14)"
   sodipodi:docname="strawberry.svg"
   xmlns:inkscape="http://www.inkscape.org/namespaces/inkscape"
   xmlns:sodipodi="http://sodipodi.sourceforge.net/DTD/sodipodi-0.dtd"
   xmlns="http://www.w3.org/2000/svg"
   xmlns:svg="http://www.w3.org/2000/svg"><sodipodi:namedview
     id="namedview7"
     pagecolor="#ffffff"
     bordercolor="#000000"
     borderopacity="0.25"
     inkscape:showpageshadow="2"
     inkscape:pageopacity="0.0"
     inkscape:pagecheckerboard="0"
     inkscape:deskcolor="#d1d1d1"
     inkscape:document-units="mm"
     showgrid="false"
     inkscape:zoom="3.2421875"
     inkscape:cx="22.361446"
     inkscape:cy="32.077108"
     inkscape:window-width="1728"
     inkscape:window-height="1080"
     inkscape:window-x="0"
     inkscape:window-y="37"
     inkscape:window-maximized="0"
     inkscape:current-layer="layer1" /><defs
     id="defs2"><inkscape:path-effect
       effect="spiro"
       id="path-effect1839"
       is_visible="true"
       lpeversion="1" /><inkscape:path-effect
       effect="spiro"
       id="path-effect1833"
       is_visible="true"
       lpeversion="1" /><inkscape:path-effect
       effect="spiro"
       id="path-effect1827"
       is_visible="true"
       lpeversion="1" /><inkscape:path-effect
       effect="spiro"
       id="path-effect1769"
       is_visible="true"
       lpeversion="1" /><inkscape:path-effect
       effect="spiro"
       id="path-effect5520"
       is_visible="true"
       lpeversion="1" /><inkscape:path-effect
       effect="spiro"
       id="path-effect5454"
       is_visible="true"
       lpeversion="1" /><inkscape:path-effect
       effect="spiro"
       id="path-effect4814"
       is_visible="true"
       lpeversion="1" /><inkscape:path-effect
       effect="spiro"
       id="path-effect4135"
       is_visible="true"
       lpeversion="1" /><inkscape:path-effect
       effect="spiro"
       id="path-effect1880"
       is_visible="true"
       lpeversion="1" /></defs><g
     inkscape:label="Layer 1"
     inkscape:groupmode="layer"
     id="layer1"><path
       id="path1614"
       style="fill:#aa0000;stroke:#7a2e00;stroke-width:0.466167"
       inkscape:transform-center-x="0.83219144"
       inkscape:transform-center-y="0.28242359"
       d="M 15.641207,11.272277 C 14.612886,13.813785 10.870173,16.965101 8.9573887,16.680763 6.2615785,16.280029 1.7447665,11.88251 1.0164935,9.2609695 0.00790036,5.6303667 2.382929,3.1774855 5.1447433,2.0337013 7.8627793,0.90804757 11.819447,1.9298845 13.914642,3.8318396 c 1.996674,1.8125197 2.879302,4.5914261 1.726565,7.4404374 z"
       sodipodi:nodetypes="sssaas" /><path
       style="fill:#44aa00;stroke:#7a2e00;stroke-width:0.413508;stroke-dasharray:none;stroke-opacity:1"
       d="M 5.7683343,0.8433522 C 5.1115036,0.84523059 4.4551203,0.94968191 3.9479099,1.1397166 3.2986795,1.3829612 2.9060274,1.7616218 2.9069,2.1437771 2.9077696,2.5259323 3.3023491,2.9041199 3.9526878,3.1467529 4.2526161,3.2586521 4.6186559,3.3443884 5.0068375,3.3465887 5.2791028,3.3481425 5.5456346,3.307783 5.77789,3.242197 5.76958,3.366291 5.826467,3.4912833 5.9660248,3.5974005 6.1650349,3.7487256 6.5125214,3.8495037 6.8762358,3.9111185 7.664887,4.0447193 8.5833155,4.0095675 9.3118295,3.8181155 9.8778204,3.6693743 10.320209,3.4285186 10.554114,3.1516342 c 0.01803,0.00749 0.03627,0.014782 0.05494,0.021963 0.272918,0.1049756 0.621221,0.1750196 0.978898,0.1729923 0.38818,-0.0022 0.75422,-0.087937 1.054148,-0.199836 C 13.29244,2.90412 13.687016,2.5259323 13.68789,2.1437772 13.688759,1.761622 13.296115,1.3829614 12.646883,1.1397168 11.997656,0.89647212 11.103898,0.79323792 10.277587,0.86612857 9.5377643,0.93138972 8.8649112,1.1367436 8.4440229,1.4200835 8.336249,1.4099226 8.2269471,1.4022752 8.1173263,1.3978492 7.6947078,1.1259991 7.0375789,0.92967374 6.3172085,0.86612843 6.136452,0.85018374 5.952246,0.84282639 5.7683343,0.8433522 Z"
       id="path1842" /><ellipse
       style="fill:#ffffff;stroke:none;stroke-width:0.26105;stroke-dasharray:none;stroke-opacity:1"
       id="path1906"
       cx="2.5913107"
       cy="8.4165468"
       rx="0.65409601"
       ry="0.58173043" /><ellipse
       style="fill:#ffffff;stroke:none;stroke-width:0.26105;stroke-dasharray:none;stroke-opacity:1"
       id="ellipse1962"
       cx="11.909135"
       cy="5.9514494"
       rx="0.65409601"
       ry="0.58173043" /><ellipse
       style="fill:#ffffff;stroke:none;stroke-width:0.26105;stroke-dasharray:none;stroke-opacity:1"
       id="ellipse1966"
       cx="13.478376"
       cy="12.111459"
       rx="0.65409601"
       ry="0.58173043" /><ellipse
       style="fill:#ffffff;stroke:none;stroke-width:0.26105;stroke-dasharray:none;stroke-opacity:1"
       id="ellipse1968"
       cx="9.2512875"
       cy="15.333637"
       rx="0.65409601"
       ry="0.58173043" /><ellipse
       style="fill:#ffffff;stroke:none;stroke-width:0.26105;stroke-dasharray:none;stroke-opacity:1"
       id="ellipse1970"
       cx="10.962471"
       cy="9.7080879"
       rx="0.65409601"
       ry="0.58173043" /><ellipse
       style="fill:#ffffff;stroke:none;stroke-width:0.26105;stroke-dasharray:none;stroke-opacity:1"
       id="ellipse1972"
       cx="5.5708065"
       cy="12.850794"
       rx="0.65409601"
       ry="0.58173043" /><ellipse
       style="fill:#ffffff;stroke:none;stroke-width:0.26105;stroke-dasharray:none;stroke-opacity:1"
       id="ellipse1974"
       cx="13.894662"
       cy="8.4165468"
       rx="0.65409601"
       ry="0.58173043" /><ellipse
       style="fill:#ffffff;stroke:none;stroke-width:0.26105;stroke-dasharray:none;stroke-opacity:1"
       id="ellipse1976"
       cx="3.8154073"
       cy="10.553312"
       rx="0.65409601"
       ry="0.58173043" /><ellipse
       style="fill:#ffffff;stroke:none;stroke-width:0.26105;stroke-dasharray:none;stroke-opacity:1"
       id="ellipse1978"
       cx="4.0015645"
       cy="5.9514494"
       rx="0.65409601"
       ry="0.58173043" /><ellipse
       style="fill:#ffffff;stroke:none;stroke-width:0.26105;stroke-dasharray:none;stroke-opacity:1"
       id="ellipse1980"
       cx="7.2583065"
       cy="9.1789217"
       rx="0.65409601"
       ry="0.58173043" /><ellipse
       style="fill:#ffffff;stroke:none;stroke-width:0.26105;stroke-dasharray:none;stroke-opacity:1"
       id="ellipse1982"
       cx="7.8125706"
       cy="5.9514494"
       rx="0.65409601"
       ry="0.58173043" /><ellipse
       style="fill:#ffffff;stroke:none;stroke-width:0.26105;stroke-dasharray:none;stroke-opacity:1"
       id="ellipse1984"
       cx="9.2512875"
       cy="12.640625"
       rx="0.65409601"
       ry="0.58173043" /></g><style
     type="text/css"
     id="style5539">.st0{fill:#8CA532;} .st1{fill:#7F573C;} .st2{fill:#9AB748;}</style><style
     type="text/css"
     id="style5588">.st0{fill:#FFCE01;}</style><style
     type="text/css"
     id="style4479">.st0{fill:#7A2E00;} .st1{fill:#FCEB8F;} .st2{fill:#FEDA00;} .st3{fill:#FDF2B4;} .st4{fill:#F5A800;}</style></svg>
